<svg xmlns="http://www.w3.org/2000/svg" viewBox="0 0 128 128">
  <defs>
    <linearGradient id="bg" x1="0%" y1="0%" x2="100%" y2="100%">
      <stop offset="0%" style="stop-color:#1d2d52"/>
      <stop offset="100%" style="stop-color:#0f1a30"/>
    </linearGradient>
  </defs>

  <!-- Hintergrund -->
  <rect width="128" height="128" rx="22" fill="url(#bg)"/>

  <!-- Filmstreifen links (Original) -->
  <rect x="10" y="28" width="44" height="72" rx="5" fill="#243356"/>
  <!-- Perforationslöcher links -->
  <rect x="12" y="35" width="9" height="9" rx="2.5" fill="#0f1a30"/>
  <rect x="12" y="52" width="9" height="9" rx="2.5" fill="#0f1a30"/>
  <rect x="12" y="69" width="9" height="9" rx="2.5" fill="#0f1a30"/>
  <rect x="12" y="82" width="9" height="9" rx="2.5" fill="#0f1a30"/>
  <!-- Perforationslöcher rechts -->
  <rect x="33" y="35" width="9" height="9" rx="2.5" fill="#0f1a30"/>
  <rect x="33" y="52" width="9" height="9" rx="2.5" fill="#0f1a30"/>
  <rect x="33" y="69" width="9" height="9" rx="2.5" fill="#0f1a30"/>
  <rect x="33" y="82" width="9" height="9" rx="2.5" fill="#0f1a30"/>
  <!-- Bildinhalt -->
  <rect x="23" y="35" width="8" height="58" rx="2" fill="#2a4a7f"/>

  <!-- Pfeil (Konvertierung) -->
  <path d="M58 55 L72 55 L72 46 L88 64 L72 82 L72 73 L58 73 Z"
        fill="#4cc9f0" opacity="0.92"/>

  <!-- Filmstreifen rechts (Proxy – kleiner) -->
  <rect x="92" y="38" width="30" height="52" rx="4" fill="#243356"/>
  <!-- Perforationslöcher links -->
  <rect x="94" y="44" width="6" height="6" rx="1.5" fill="#0f1a30"/>
  <rect x="94" y="57" width="6" height="6" rx="1.5" fill="#0f1a30"/>
  <rect x="94" y="70" width="6" height="6" rx="1.5" fill="#0f1a30"/>
  <!-- Perforationslöcher rechts -->
  <rect x="110" y="44" width="6" height="6" rx="1.5" fill="#0f1a30"/>
  <rect x="110" y="57" width="6" height="6" rx="1.5" fill="#0f1a30"/>
  <rect x="110" y="70" width="6" height="6" rx="1.5" fill="#0f1a30"/>
  <!-- Bildinhalt -->
  <rect x="102" y="44" width="6" height="44" rx="1.5" fill="#2a4a7f"/>

  <!-- "P" Label -->
  <text x="64" y="114" font-family="sans-serif" font-size="11" font-weight="bold"
        fill="#4cc9f0" text-anchor="middle" opacity="0.85">PROXY</text>
</svg>
