<svg xmlns="http://www.w3.org/2000/svg" viewBox="0 0 256 256" width="256" height="256">
  <defs>
    <linearGradient id="bg" x1="0" y1="0" x2="1" y2="1">
      <stop offset="0%" stop-color="#1a2e45"/>
      <stop offset="100%" stop-color="#0f1e30"/>
    </linearGradient>
    <linearGradient id="accent" x1="0" y1="0" x2="0" y2="1">
      <stop offset="0%" stop-color="#4fc3f7"/>
      <stop offset="100%" stop-color="#0288d1"/>
    </linearGradient>
  </defs>

  <!-- Hintergrund -->
  <rect width="256" height="256" rx="48" fill="url(#bg)"/>

  <!-- Großes Frame (Original) -->
  <rect x="28" y="54" width="110" height="82" rx="6" fill="none" stroke="#4fc3f7" stroke-width="6"/>
  <!-- Perforations oben/unten -->
  <rect x="36" y="44" width="12" height="10" rx="3" fill="#4fc3f7" opacity="0.7"/>
  <rect x="58" y="44" width="12" height="10" rx="3" fill="#4fc3f7" opacity="0.7"/>
  <rect x="80" y="44" width="12" height="10" rx="3" fill="#4fc3f7" opacity="0.7"/>
  <rect x="102" y="44" width="12" height="10" rx="3" fill="#4fc3f7" opacity="0.7"/>
  <rect x="36" y="136" width="12" height="10" rx="3" fill="#4fc3f7" opacity="0.7"/>
  <rect x="58" y="136" width="12" height="10" rx="3" fill="#4fc3f7" opacity="0.7"/>
  <rect x="80" y="136" width="12" height="10" rx="3" fill="#4fc3f7" opacity="0.7"/>
  <rect x="102" y="136" width="12" height="10" rx="3" fill="#4fc3f7" opacity="0.7"/>

  <!-- Kleines Frame (Proxy) -->
  <rect x="152" y="100" width="76" height="56" rx="5" fill="none" stroke="url(#accent)" stroke-width="5"/>
  <!-- Perforations oben/unten -->
  <rect x="158" y="92" width="8" height="8" rx="2" fill="#0288d1" opacity="0.8"/>
  <rect x="172" y="92" width="8" height="8" rx="2" fill="#0288d1" opacity="0.8"/>
  <rect x="186" y="92" width="8" height="8" rx="2" fill="#0288d1" opacity="0.8"/>
  <rect x="200" y="92" width="8" height="8" rx="2" fill="#0288d1" opacity="0.8"/>
  <rect x="214" y="92" width="8" height="8" rx="2" fill="#0288d1" opacity="0.8"/>
  <rect x="158" y="156" width="8" height="8" rx="2" fill="#0288d1" opacity="0.8"/>
  <rect x="172" y="156" width="8" height="8" rx="2" fill="#0288d1" opacity="0.8"/>
  <rect x="186" y="156" width="8" height="8" rx="2" fill="#0288d1" opacity="0.8"/>
  <rect x="200" y="156" width="8" height="8" rx="2" fill="#0288d1" opacity="0.8"/>
  <rect x="214" y="156" width="8" height="8" rx="2" fill="#0288d1" opacity="0.8"/>

  <!-- "PROXY" Label unten -->
  <text x="128" y="218" font-family="sans-serif" font-weight="700" font-size="26"
        fill="white" text-anchor="middle" opacity="0.9" letter-spacing="4">PROXY</text>
</svg>
